HIERARCHY
ROOT Hips
{
     OFFSET 1.88212 96.90440 -13.34250
     CHANNELS 6 Xposition Yposition Zposition Zrotation Xrotation Yrotation
     JOINT Spine
     {
          OFFSET 0.00000 11.89050 0.00000
          CHANNELS 3 Zrotation Xrotation Yrotation
          JOINT Spine1
          {
               OFFSET -0.00000 25.65740 0.12766
               CHANNELS 3 Zrotation Xrotation Yrotation
               JOINT HEad
               {
                    OFFSET 0.00000 8.73416 0.01134
                    CHANNELS 3 Zrotation Xrotation Yrotation
                    End Site
                    {
                         OFFSET -0.29000 12.77420 2.51395
                    }
               }
               JOINT LeftShoulder1
               {
                    OFFSET 8.99000 -0.36225 -0.22000
                    CHANNELS 3 Zrotation Xrotation Yrotation
                    JOINT LeftArm
                    {
                         OFFSET 10.28270 -0.00338 0.32212
                         CHANNELS 3 Zrotation Xrotation Yrotation
                         JOINT LeftForeArm
                         {
                              OFFSET 32.76690 0.09914 -1.42434
                              CHANNELS 3 Zrotation Xrotation Yrotation
                              JOINT LeftHand
                              {
                                   OFFSET 27.56430 0.08536 1.02216
                                   CHANNELS 3 Zrotation Xrotation Yrotation
                                   End Site
                                   {
                                        OFFSET 16.74430 -0.60000 1.50291
                                   }
                              }
                         }
                    }
               }
               JOINT RightShoulder
               {
                    OFFSET -8.99000 -0.36225 -0.22000
                    CHANNELS 3 Zrotation Xrotation Yrotation
                    JOINT RightArm
                    {
                         OFFSET -10.28270 -0.00338 0.32212
                         CHANNELS 3 Zrotation Xrotation Yrotation
                         JOINT RightForeArm
                         {
                              OFFSET -32.89710 0.09914 -1.42434
                              CHANNELS 3 Zrotation Xrotation Yrotation
                              JOINT RightHand
                              {
                                   OFFSET -27.49210 0.08536 1.02216
                                   CHANNELS 3 Zrotation Xrotation Yrotation
                                   End Site
                                   {
                                        OFFSET -16.63120 -0.60000 1.50291
                                   }
                              }
                         }
                    }
               }
          }
     }
     JOINT LeftUpLeg
     {
          OFFSET 8.94580 -8.66707 0.10165
          CHANNELS 3 Zrotation Xrotation Yrotation
          JOINT LeftLeg
          {
               OFFSET 0.00000 -44.42270 1.37270
               CHANNELS 3 Zrotation Xrotation Yrotation
               JOINT LeftFoot
               {
                    OFFSET -0.25355 -42.09240 -1.46059
                    CHANNELS 3 Zrotation Xrotation Yrotation
                    JOINT LeftToes
                    {
                         OFFSET -0.04000 -4.41509 8.49910
                         CHANNELS 3 Zrotation Xrotation Yrotation
                         End Site
                         {
                              OFFSET 0.08000 -0.04745 9.77979
                         }
                    }
               }
          }
     }
     JOINT RightUpLeg
     {
          OFFSET -8.94580 -8.66707 0.10165
          CHANNELS 3 Zrotation Xrotation Yrotation
          JOINT RightLeg
          {
               OFFSET 0.00000 -44.42270 1.37270
               CHANNELS 3 Zrotation Xrotation Yrotation
               JOINT RightFoot
               {
                    OFFSET 0.25355 -42.09240 -1.46059
                    CHANNELS 3 Zrotation Xrotation Yrotation
                    JOINT RightToes
                    {
                         OFFSET 0.04000 -4.41509 8.49910
                         CHANNELS 3 Zrotation Xrotation Yrotation
                         End Site
                         {
                              OFFSET -0.08000 -0.13745 9.77979
                         }
                    }
               }
          }
     }
}
MOTION
Frames: 17
Frame Time: 0.01667
16.96688 58.41028 -118.75505 4.22119 -8.11679 17.81740 -14.81343 41.64197 7.51666 0.00073 0.01215 -0.00707 4.30781 -6.02548 -9.19643 1.75735 6.44501 -4.10053 -78.28039 -10.92076 -108.41598 2.44200 38.31723 -98.33360 37.46815 -0.87097 -16.34210 28.29690 11.96504 1.18381 45.69072 -20.05160 68.58227 -0.62550 28.84540 128.01662 -40.62590 11.13216 -9.83277 27.14741 -62.52277 19.07542 116.91232 84.58868 -121.81419 69.81631 -0.00656 -0.01290 -89.53652 -1.96131 -2.88781 -28.55521 -31.84673 -20.91106 -110.29437 62.63079 82.31752 -2.85913 -0.13890 0.23609 -3.77231 -41.80240 1.26480 
15.55650 56.59170 -119.31474 4.26162 -9.31931 19.59000 -11.92878 43.71136 5.27059 0.00114 0.01124 -0.00321 3.22639 -7.29986 -9.28016 0.82026 6.92374 -3.57641 -79.04476 -12.22146 -109.51366 3.10339 39.18888 -98.38474 38.24765 -1.67762 -16.38570 26.69130 12.04203 2.06023 46.44726 -21.10741 68.24792 0.01658 30.59915 127.37835 -40.85517 10.92175 -9.50493 27.13396 -64.33007 18.11493 124.53033 83.11251 -131.10399 70.95838 -0.00888 -0.01263 -90.29326 -1.80098 -1.70206 -29.33198 -32.26959 -16.75297 -111.87073 65.42926 86.91955 -8.54288 -0.03896 0.20224 -16.30245 -54.25010 -6.03230 
14.20909 54.85084 -119.91927 4.41101 -10.25482 20.98499 -9.09357 45.01445 3.09762 0.00104 0.01557 -0.00145 2.04580 -8.23682 -9.24432 -0.27199 7.61796 -3.22330 -80.98819 -16.66202 -109.95521 0.51016 39.89787 -99.49551 38.99126 -1.98981 -16.44185 25.03808 12.37576 2.86786 47.04016 -22.01792 67.89127 0.64773 32.17577 126.67200 -41.03798 10.97306 -9.18154 27.39366 -66.07573 17.67079 128.01656 81.83398 -136.09570 71.81554 -0.00897 -0.01054 -90.87818 -1.42898 -0.54165 -29.35477 -32.72779 -11.15334 -114.91244 68.82731 94.37504 -9.32759 -0.07099 0.04997 -7.96433 -45.73591 -4.45949 
12.81071 53.16369 -120.45021 4.64782 -10.95476 22.06150 -6.43029 45.68999 1.09339 -0.00108 0.01952 -0.00031 0.80604 -8.89966 -9.08464 -1.44413 8.45294 -2.99007 -82.36691 -19.22013 -110.37896 -0.60555 40.60553 -100.23435 39.48942 -1.67851 -16.41888 23.31683 12.89163 3.61396 47.50429 -22.75661 67.52451 1.21808 33.49923 125.95971 -41.00132 11.03319 -8.90951 28.11221 -67.67509 17.84385 128.95323 80.70783 -138.47118 72.21819 -0.00603 -0.00713 -91.06699 -0.97262 0.62089 -28.99788 -33.23730 -4.50827 -119.66280 72.51631 104.36246 -6.65168 -0.19647 -0.07821 -14.45589 -43.45113 -11.08443 
10.97787 51.27769 -120.70423 4.99867 -11.46319 22.88040 -4.06144 45.87394 -0.65747 0.00062 0.02237 0.00092 -0.45628 -10.24571 -7.51562 -2.74329 9.27737 -2.89589 -85.60178 -23.87984 -110.24212 -3.32109 42.28257 -102.29605 41.28206 17.17550 -14.38415 21.46340 13.45967 4.44578 47.84821 -23.25460 67.02579 1.55621 34.53522 125.35379 -40.67639 11.22102 -8.82004 30.91138 -68.44301 19.32147 128.15790 80.46178 -139.86850 71.96485 -0.00087 -0.00286 -90.67836 -0.58386 1.83980 -28.74983 -33.92753 2.68640 -135.14166 76.03803 124.33966 2.39108 -0.44238 -0.07110 1.11433 -40.70652 -5.12474 
8.96205 49.50350 -120.72522 5.43694 -11.82120 23.47127 -2.06894 45.68275 -2.07317 -0.00210 0.02429 0.00098 -1.75730 -12.13473 -4.67446 -4.06615 10.14712 -2.83906 -87.72546 -26.41676 -110.07122 -3.98931 43.52268 -103.76501 42.57479 7.27247 -15.73515 19.63744 14.08232 5.17436 48.06238 -23.44369 66.57273 1.69289 35.30833 124.84731 -40.42334 11.46252 -8.85843 35.26016 -68.52791 21.62249 126.64712 80.94596 -141.06042 71.05276 0.00330 0.00075 -90.03517 -0.23079 2.89335 -27.99943 -35.26736 9.72057 -159.37611 76.65539 151.58922 7.18569 -0.26945 0.00998 -10.14633 -42.21848 -10.77382 
6.70941 47.83490 -120.48267 5.94575 -12.06824 23.86327 -0.49378 45.21797 -3.10429 -0.00437 0.02563 0.00110 -2.95945 -13.62858 -2.02744 -5.34563 11.03579 -2.71046 -89.19582 -27.73035 -109.67610 -3.52152 44.36141 -104.98188 42.66154 12.88979 -15.06498 17.93946 14.73071 5.77266 48.13528 -23.31498 66.21506 1.64068 35.84847 124.38337 -40.05184 11.74265 -9.03622 40.38822 -68.02534 24.05240 124.72932 82.09232 -142.12286 69.51487 0.00573 0.00318 -88.93536 0.03101 3.86833 -26.89003 -37.06232 16.48404 -179.92148 74.19885 174.33725 13.34445 -0.24375 0.05907 10.81487 -44.03159 2.00651 
3.96536 46.17718 -119.88758 6.54423 -12.23481 24.10258 0.71780 44.54499 -3.77367 0.00140 0.02452 0.00120 -4.54244 -15.36637 1.71639 -6.49030 11.83756 -2.40116 -93.52071 -31.08873 -108.81490 -1.85579 43.89901 -106.31493 41.76739 2.48423 -17.54540 16.55637 15.31693 5.88930 46.70708 -19.51789 68.05073 0.66827 33.84169 121.24596 -39.53423 12.10416 -9.27525 45.13049 -67.07933 25.58357 111.05691 82.82545 -131.19182 65.69403 0.01909 0.00473 -87.08890 0.47550 4.47389 -26.40576 -38.79944 21.69336 -190.47145 70.60862 187.05307 19.06662 -0.19815 0.08472 0.06053 -46.52632 -1.36864 
1.04166 44.63726 -119.10031 7.20278 -12.34836 24.21932 1.61634 43.71751 -4.10570 0.00353 0.02482 0.00049 -6.01151 -16.67480 5.11279 -7.53656 12.69601 -2.01107 -96.47210 -32.80637 -107.80709 -0.30273 43.91768 -107.92668 40.90160 3.12407 -17.79959 15.41148 15.96068 5.64808 43.96850 -13.91648 71.14646 -0.83285 30.22535 116.90887 -39.09025 12.61623 -9.87153 48.51493 -65.85297 25.38375 88.55285 82.91122 -110.70741 60.38999 0.03148 0.00168 -84.89033 1.11328 4.78333 -26.23038 -40.63097 25.39833 -195.03078 66.81596 193.48817 22.88063 -0.16173 0.07155 1.34563 -47.42147 1.83312 
-2.03629 43.21669 -118.16858 7.92047 -12.42043 24.24374 2.20509 42.78722 -4.11215 0.00008 0.02747 0.00148 -7.38156 -17.58555 8.16657 -8.43189 13.59799 -1.59315 -98.61351 -33.76337 -106.62650 0.76789 44.04056 -109.49835 41.11539 -1.48665 -18.95163 14.36960 16.62969 5.49373 41.87938 -10.71927 72.42532 -1.84305 28.04025 115.03399 -38.54897 13.00270 -10.51682 50.65971 -64.34444 23.69946 65.11357 83.26567 -88.81462 55.55093 0.01983 0.00493 -82.16139 1.71149 5.13124 -26.19814 -42.59238 27.71964 -196.37057 63.18404 196.33850 25.90081 -0.14918 0.06912 -1.53022 -49.27228 2.78986 
-5.49680 42.03449 -117.05348 8.72453 -12.44915 24.22212 2.52709 41.78534 -3.85539 -0.00253 0.02779 0.00177 -9.55106 -18.26928 12.01751 -8.89626 14.42073 -1.37815 -103.89075 -37.09766 -105.41099 -0.11720 46.15554 -113.22529 41.21791 -0.11024 -18.71062 13.40844 17.24699 5.41145 40.36031 -8.73360 72.65127 -2.48841 26.84643 114.33069 -37.79466 13.00986 -11.10252 51.45910 -62.45947 20.59687 39.62774 80.97748 -63.76713 48.89070 0.06139 -0.00266 -78.94812 3.77842 5.83853 -26.02487 -44.66395 28.88370 -196.15607 59.70052 196.97821 28.35605 -0.14388 0.06531 -1.52007 -50.42198 6.16400 
-8.97615 41.06344 -115.90237 9.58898 -12.43565 24.18179 2.61198 40.72396 -3.37041 -0.00659 0.02886 0.00077 -11.54000 -18.62503 15.46003 -9.24658 15.26766 -1.24389 -107.44364 -39.08674 -104.21786 -0.67427 47.52563 -115.32343 41.52209 -2.25204 -19.56444 12.59013 17.89557 5.28332 39.26450 -7.37753 72.45139 -2.91842 26.35957 114.08524 -37.24107 13.16449 -11.56239 51.31411 -60.10994 16.57937 22.40718 78.11244 -46.47745 42.60669 0.04449 0.00659 -75.45013 5.73588 6.80997 -25.73524 -46.72867 28.97735 -195.18927 56.54857 196.10074 29.35634 -0.14501 0.05039 -1.84777 -51.55902 8.72427 
-12.43225 40.35302 -114.72549 10.51647 -12.37217 24.14859 2.46380 39.60850 -2.68468 -0.00948 0.02967 -0.00036 -13.36337 -18.65978 18.51866 -9.56030 16.13415 -1.12452 -109.69486 -40.29733 -102.85070 -1.17731 48.31817 -116.31778 41.61980 -1.24659 -19.60914 11.95473 18.56651 5.10295 38.41500 -6.34597 72.10722 -3.20880 26.32789 113.93958 -36.71568 13.09454 -11.81301 50.63911 -57.28752 12.19814 11.04598 74.40063 -34.60486 36.27768 0.03698 0.00889 -64.63546 17.09796 19.37465 -25.42479 -48.64495 28.07105 -193.83435 53.93755 194.10973 30.05324 -0.14349 0.04958 -1.64380 -52.09482 11.88279 
-16.09178 40.11588 -113.46341 11.52666 -12.24010 24.19397 2.10593 38.42147 -1.83300 -0.01004 0.02870 -0.00068 -16.05066 -18.21792 22.14212 -9.99948 16.91416 -0.80844 -110.72444 -40.91505 -100.72753 -3.37271 45.66085 -111.83781 38.35971 -4.41611 -23.53823 11.51169 19.18150 4.96208 37.54952 -5.58671 71.65034 -3.19856 26.35291 113.75716 -20.68118 2.34118 -7.02460 49.69571 -53.85965 7.95104 3.80918 68.49950 -24.99881 29.34590 0.15755 0.01504 -65.24003 16.14572 14.54816 -25.19262 -50.26278 26.19952 -193.95866 51.44921 194.23029 30.05732 -0.15166 0.03443 18.03317 -50.34503 40.87773 
-19.63344 40.12325 -112.21695 12.58068 -12.04793 24.32922 1.58257 37.16892 -0.83844 -0.01105 0.03067 -0.00173 -18.43378 -17.55444 25.33399 -10.32304 17.75571 -0.57324 -111.16742 -41.22107 -98.33126 -4.07901 44.33460 -110.33045 36.69062 -4.71378 -25.27753 11.29050 19.83150 4.68159 36.62123 -5.01293 71.29906 -2.97109 26.37328 113.49119 -29.75276 6.32352 -10.17743 48.59785 -49.88855 4.18915 0.61433 62.40253 -19.23479 22.45379 0.13659 0.04538 -63.29246 35.12388 30.03401 -25.04481 -51.47551 23.48046 -193.21042 50.04524 192.12708 29.88613 -0.14776 0.02808 3.87797 -52.88384 25.98850 
-23.04195 40.39179 -110.97552 13.67107 -11.79755 24.55131 0.89057 35.86082 0.29370 -0.01204 0.03273 -0.00338 -20.50136 -16.67927 28.11971 -10.42450 18.65705 -0.52842 -111.33736 -41.38688 -95.99802 -4.18755 43.70666 -110.20486 36.25016 -5.35682 -26.31020 11.39806 20.53086 4.20447 35.61506 -4.37107 71.12543 -2.90615 26.56569 113.22570 -23.91990 4.92646 -8.69145 47.35324 -45.50118 1.25458 -0.18506 55.95160 -15.74911 15.51939 0.12302 0.06373 -57.84371 29.74888 22.25243 -24.86895 -52.22031 20.16248 -192.01131 49.55879 188.57260 29.48938 -0.14069 0.03438 7.63552 -51.53732 33.46097 
-26.47867 41.07845 -109.70419 14.82409 -11.48745 24.88882 -0.83244 35.42472 2.73437 -0.06209 0.10780 0.04848 -21.83604 -16.27884 29.40282 -9.28717 18.67912 -1.43127 -111.28296 -41.24318 -93.82285 -4.02306 43.41571 -110.71004 36.33250 -4.63793 -26.41724 12.62125 20.10144 3.04080 31.82089 -2.14845 73.73101 -2.73996 27.06325 113.86917 -32.72149 10.15979 -13.28845 46.15110 -41.08135 -0.25381 -0.81063 49.45858 -11.22526 9.49442 0.19697 0.05129 -53.87713 37.26685 25.62351 -24.31341 -52.41476 16.69523 -190.61983 49.87949 183.96761 29.28904 -0.13751 0.04064 3.33259 -51.26836 30.55861 
